<?xml version="1.0" encoding="utf-8"?>
<!-- Generator: Adobe Illustrator 21.0.2, SVG Export Plug-In . SVG Version: 6.00 Build 0)  -->
<svg version="1.1" id="레이어_1" xmlns="http://www.w3.org/2000/svg" xmlns:xlink="http://www.w3.org/1999/xlink" x="0px"
	 y="0px" viewBox="0 0 283.5 283.5" style="enable-background:new 0 0 283.5 283.5;" xml:space="preserve">
<style type="text/css">
	.st0{fill:none;stroke:#111111;stroke-width:14;stroke-linecap:round;stroke-linejoin:round;stroke-miterlimit:10;}
	.st1{fill:none;stroke:#111111;stroke-width:16;stroke-linecap:round;stroke-linejoin:round;stroke-miterlimit:10;}
</style>
<g>
	<g>
		<path class="st0" d="M94.3,205.8c35.4,35.4,92.7,35.4,128.1,0s35.4-92.7,0-128.1c-35.4-35.4-92.7-35.4-128.1,0"/>
		<path class="st0" d="M113.7,220.5c43.5,24.6,98.8,9.3,123.4-34.2s9.3-98.8-34.2-123.4c-43.5-24.6-98.8-9.3-123.4,34.2"/>
		<path class="st0" d="M79.5,186.4c24.7,43.5,80,58.8,123.5,34.1s58.7-80,34.1-123.5c-24.7-43.5-80-58.8-123.5-34.1"/>
		<g>
			<polyline class="st1" points="135.8,90.5 187.1,141.7 135.8,193 			"/>
			<line class="st1" x1="182.8" y1="141.7" x2="34.6" y2="141.7"/>
		</g>
	</g>
</g>
</svg>
