<?xml version="1.0" encoding="utf-8"?>
<!-- Generator: Adobe Illustrator 21.0.2, SVG Export Plug-In . SVG Version: 6.00 Build 0)  -->
<svg version="1.1" id="레이어_1" xmlns="http://www.w3.org/2000/svg" xmlns:xlink="http://www.w3.org/1999/xlink" x="0px"
	 y="0px" viewBox="0 0 283.5 283.5" style="enable-background:new 0 0 283.5 283.5;" xml:space="preserve">
<style type="text/css">
	.st0{fill:none;stroke:#111111;stroke-width:18.7;stroke-linecap:round;stroke-linejoin:round;stroke-miterlimit:10;}
	.st1{fill:#111111;}
</style>
<g>
	<g>
		<circle class="st0" cx="124.8" cy="87.4" r="43.3"/>
	</g>
	<path class="st0" d="M32.1,231.6c0,0,5-101,92.8-101c0,0,33.3-2.1,54.9,16"/>
	<g>
		<path class="st1" d="M186,230.9v-35.7c0-3.5-0.4-6.5-1.3-9c-0.9-2.5-2.9-3.7-6.1-3.7c-3,0.1-5.3,1.3-6.9,3.7
			c-1.6,2.4-2.3,5.9-2.3,10.4v34.2h-15.7v-35.7c0-3.4-0.5-6.4-1.4-8.9c-1-2.6-3-3.8-6.2-3.7c-3.1,0.1-5.4,1.3-6.7,3.7
			c-1.4,2.4-2.1,5.9-2.1,10.4v34.2h-15.8v-60.2h15.8v4c1.6-1.6,3.5-3,5.8-4.3c2.3-1.3,5.2-1.9,8.6-1.9c3,0,5.8,0.7,8.3,2.1
			c2.5,1.4,4.5,3.2,5.9,5.6c1.4-1.8,3.5-3.6,6.3-5.6c2.8-2,6.9-2.7,12.5-2.2c5.7,0.5,10,2.9,12.9,7c2.9,4.1,4.3,8.7,4.3,13.8v41.8
			H186z"/>
		<path class="st1" d="M239.2,233.3c-1,2.4-2.2,4.4-3.8,6.1c-1.6,1.7-3.1,2.9-4.7,3.7c-1.8,0.9-3.7,1.5-5.7,1.8
			c-2,0.3-3.9,0.4-5.6,0.4h-7.9v-13.4h6.6c1.6,0,3-0.4,4.2-1.3c1.2-0.9,2-1.9,2.6-3.3l1.4-2.6l-23-54.5h16.5l14.4,34.2l14.7-34.2
			h16.4L239.2,233.3z"/>
	</g>
</g>
</svg>
